<?xml version="1.0" encoding="iso-8859-1"?>
<!-- Generator: Adobe Illustrator 18.0.0, SVG Export Plug-In . SVG Version: 6.00 Build 0)  -->
<!DOCTYPE svg PUBLIC "-//W3C//DTD SVG 1.1//EN" "http://www.w3.org/Graphics/SVG/1.1/DTD/svg11.dtd">
<svg version="1.1" id="Capa_1" xmlns="http://www.w3.org/2000/svg" xmlns:xlink="http://www.w3.org/1999/xlink" x="0px" y="0px"
	 viewBox="0 0 460 460" style="enable-background:new 0 0 460 460;" xml:space="preserve">
<g id="XMLID_838_">
	<path id="XMLID_1792_" d="M457.428,206.164l-28.936-25.326V58.8c0-4.16-3.372-7.533-7.533-7.533H280.451l-45.49-39.815
		c-2.84-2.486-7.082-2.486-9.922,0l-45.49,39.815H39.041c-4.161,0-7.533,3.373-7.533,7.533v122.038L2.572,206.164
		C0.938,207.594,0,209.66,0,211.832v155.181C0,413,37.413,450.412,83.399,450.412h293.203C422.587,450.412,460,413,460,367.013
		V211.832C460,209.66,459.062,207.594,457.428,206.164z M439.112,210.154l-10.62,5.38v-14.676L439.112,210.154z M230,27.131
		l27.577,24.136h-55.153L230,27.131z M413.426,66.333v156.833l-184.649,93.546L46.574,223.369V66.333H413.426z M31.508,215.651
		l-10.661-5.462l10.661-9.331V215.651z M15.066,367.013V224.155l197.099,100.974l-177.37,89.858
		C22.606,402.64,15.066,385.693,15.066,367.013z M376.601,435.347H83.399c-12.789,0-24.764-3.54-35.01-9.679l396.546-201.557
		v142.902C444.935,404.693,414.281,435.347,376.601,435.347z" fill="#414141"/>
	<path id="XMLID_1800_" d="M230,272.9c35.264,0,63.953-28.689,63.953-63.952c0-26.199-15.656-49.297-39.494-59.11v-8.594
		c0-4.16-3.372-7.533-7.533-7.533h-10.163c-1.008-4.564-3.262-10.388-8.24-15.709c-8.03-8.582-20.382-12.934-36.714-12.934
		c-4.161,0-7.533,3.373-7.533,7.533c0,4.16,3.372,7.533,7.533,7.533c11.871,0,20.47,2.691,25.558,7.998
		c1.742,1.818,2.885,3.766,3.645,5.58h-7.938c-4.161,0-7.533,3.373-7.533,7.533v8.594c-23.838,9.813-39.494,32.911-39.494,59.11
		C166.047,244.212,194.736,272.9,230,272.9z M239.393,148.777v6.338c0,3.291,2.136,6.2,5.275,7.187
		c20.468,6.429,34.219,25.175,34.219,46.647c0,26.957-21.93,48.887-48.887,48.887s-48.887-21.93-48.887-48.887
		c0-21.472,13.751-40.217,34.219-46.647c3.139-0.986,5.275-3.896,5.275-7.187v-6.338H239.393z" fill="#414141"/>
	<path id="XMLID_1801_" d="M191.809,101.037c4.161,0,7.533-3.373,7.533-7.533v-9.548c0-4.16-3.372-7.533-7.533-7.533
		c-4.161,0-7.533,3.373-7.533,7.533v9.548C184.276,97.664,187.648,101.037,191.809,101.037z" fill="#414141"/>
	<path id="XMLID_1803_" d="M191.809,148.777c4.161,0,7.533-3.373,7.533-7.533v-9.548c0-4.16-3.372-7.533-7.533-7.533
		c-4.161,0-7.533,3.373-7.533,7.533v9.548C184.276,145.404,187.648,148.777,191.809,148.777z" fill="#414141"/>
	<path id="XMLID_1804_" d="M153.616,120.133h9.548c4.161,0,7.533-3.373,7.533-7.533c0-4.16-3.372-7.533-7.533-7.533h-9.548
		c-4.161,0-7.533,3.373-7.533,7.533C146.083,116.76,149.455,120.133,153.616,120.133z" fill="#414141"/>
	<path id="XMLID_1805_" d="M176.979,137.903c3.428-2.357,4.297-7.047,1.939-10.475c-2.357-3.427-7.047-4.297-10.474-1.939
		l-7.867,5.409c-3.428,2.357-4.297,7.047-1.939,10.475c1.46,2.124,3.816,3.265,6.214,3.265c1.471,0,2.957-0.43,4.261-1.326
		L176.979,137.903z" fill="#414141"/>
	<path id="XMLID_1810_" d="M160.577,94.302l7.867,5.409c1.304,0.896,2.789,1.326,4.261,1.326c2.397,0,4.754-1.141,6.215-3.266
		c2.357-3.428,1.488-8.118-1.94-10.475l-7.867-5.409c-3.428-2.357-8.119-1.489-10.475,1.94
		C156.28,87.256,157.149,91.946,160.577,94.302z" fill="#414141"/>
</g>
<g>
</g>
<g>
</g>
<g>
</g>
<g>
</g>
<g>
</g>
<g>
</g>
<g>
</g>
<g>
</g>
<g>
</g>
<g>
</g>
<g>
</g>
<g>
</g>
<g>
</g>
<g>
</g>
<g>
</g>
</svg>
